# xmcd CD database file
#
# Track frame offsets:
#	150
#	14104
#	23027
#	33155
#	45843
#	57907
#	69887
#	84081
#	94860
#	108862
#	118859
#	132616
#	144312
#	156156
#	165764
#	177144
#	182658
#	191679
#	198538
#	209619
#	218766
#	233315
#	245898
#	257500
#	267137
#	279468
#	288785
#
# Disc length: 4030 seconds
#
# Revision: 0
# Processed by: cddbd v1.5.2PL0 Copyright (c) Steve Scherf et al.
# Submitted via: CDex 1.51
#
DISCID=700fbc1b
DTITLE=Willie Nelson - Reflections cd-2
DYEAR=2006
DGENRE=Country
TTITLE0=Home Is Where You're Happy
TTITLE1=Why Are You Picking On Me 
TTITLE2=Broken Promises
TTITLE3=She's Not For You 
TTITLE4=Following Me Around 
TTITLE5=End Of Understanding 
TTITLE6=Rainy Day Blues  
TTITLE7=Blame It On The Times
TTITLE8=So Much To Do 
TTITLE9=A New Way To Cry 
TTITLE10=No Tomorrow In Sight 
TTITLE11=I'll Stay Around 
TTITLE12=Happiness Lives Next Door 
TTITLE13=Let's Pretend 
TTITLE14=I'm Going To Lose A Lot Of Teardrops 
TTITLE15=The Ghost 
TTITLE16=Waiting Time
TTITLE17=Both Ends Of The Candle
TTITLE18=Go Away 
TTITLE19=Right From Wrong
TTITLE20=What Can You Do To Me Now 
TTITLE21=The Storm Has Just Begun  
TTITLE22=What A Way To Live 
TTITLE23=Ashamed 
TTITLE24=Shelter Of My Arms
TTITLE25=One Step Beyond 
TTITLE26=Undo The Wrong 
EXTD=YEAR: 2006
EXTT0=
EXTT1=
EXTT2=
EXTT3=
EXTT4=
EXTT5=
EXTT6=
EXTT7=
EXTT8=
EXTT9=
EXTT10=
EXTT11=
EXTT12=
EXTT13=
EXTT14=
EXTT15=
EXTT16=
EXTT17=
EXTT18=
EXTT19=
EXTT20=
EXTT21=
EXTT22=
EXTT23=
EXTT24=
EXTT25=
EXTT26=
PLAYORDER=
